<mxfile host="app.diagrams.net" modified="2023-12-26T04:17:02.576Z" agent="Mozilla/5.0 (iPhone; CPU iPhone OS 17_1 like Mac OS X) AppleWebKit/605.1.15 (KHTML, like Gecko) Version/17.1 Mobile/15E148 Safari/604.1" version="22.1.11" etag="rA22R2ASI3rSQv6sUSyX" type="github">
  <diagram name="Trang-1" id="snPIYHlz5JEJqXtwccJV">
    <mxGraphModel>
      <root>
        <mxCell id="0" />
        <mxCell id="1" parent="0" />
      </root>
    </mxGraphModel>
  </diagram>
</mxfile>
